<mxfile host="65bd71144e">
    <diagram id="8EDpQ0aSSNZFgVUkODJJ" name="Page-1">
        <mxGraphModel dx="748" dy="307" grid="1" gridSize="10" guides="1" tooltips="1" connect="1" arrows="1" fold="1" page="1" pageScale="1" pageWidth="850" pageHeight="1100" math="0" shadow="0">
            <root>
                <mxCell id="0"/>
                <mxCell id="1" parent="0"/>
                <mxCell id="5" value="" style="edgeStyle=none;html=1;" edge="1" parent="1" source="3" target="4">
                    <mxGeometry relative="1" as="geometry"/>
                </mxCell>
                <mxCell id="3" value="start" style="ellipse;whiteSpace=wrap;html=1;" vertex="1" parent="1">
                    <mxGeometry x="340" y="120" width="80" height="80" as="geometry"/>
                </mxCell>
                <mxCell id="7" value="" style="edgeStyle=none;html=1;" edge="1" parent="1" source="4" target="6">
                    <mxGeometry relative="1" as="geometry"/>
                </mxCell>
                <mxCell id="4" value="user input for 3 vars:&lt;br&gt;num1, num3, N" style="shape=parallelogram;perimeter=parallelogramPerimeter;whiteSpace=wrap;html=1;fixedSize=1;" vertex="1" parent="1">
                    <mxGeometry x="310" y="280" width="140" height="70" as="geometry"/>
                </mxCell>
                <mxCell id="10" value="" style="edgeStyle=none;html=1;" edge="1" parent="1" source="6" target="9">
                    <mxGeometry relative="1" as="geometry"/>
                </mxCell>
                <mxCell id="6" value="append num1 and num2 to result list" style="whiteSpace=wrap;html=1;" vertex="1" parent="1">
                    <mxGeometry x="320" y="435" width="120" height="60" as="geometry"/>
                </mxCell>
                <mxCell id="12" value="i &amp;lt; N" style="edgeStyle=none;html=1;" edge="1" parent="1" source="9" target="11">
                    <mxGeometry relative="1" as="geometry"/>
                </mxCell>
                <mxCell id="17" value="" style="edgeStyle=none;html=1;" edge="1" parent="1" source="9" target="16">
                    <mxGeometry relative="1" as="geometry"/>
                </mxCell>
                <mxCell id="9" value="for i in range(2, N)" style="rhombus;whiteSpace=wrap;html=1;" vertex="1" parent="1">
                    <mxGeometry x="340" y="565" width="80" height="85" as="geometry"/>
                </mxCell>
                <mxCell id="14" value="" style="edgeStyle=none;html=1;" edge="1" parent="1" source="11" target="13">
                    <mxGeometry relative="1" as="geometry"/>
                </mxCell>
                <mxCell id="11" value="num = result[i-1] + result[i-2]&lt;br&gt;(add previous 2 nums)" style="whiteSpace=wrap;html=1;" vertex="1" parent="1">
                    <mxGeometry x="480" y="577.5" width="120" height="60" as="geometry"/>
                </mxCell>
                <mxCell id="15" style="edgeStyle=none;html=1;exitX=0;exitY=0.5;exitDx=0;exitDy=0;entryX=1;entryY=0.5;entryDx=0;entryDy=0;" edge="1" parent="1" source="13" target="9">
                    <mxGeometry relative="1" as="geometry">
                        <mxPoint x="430" y="620" as="targetPoint"/>
                    </mxGeometry>
                </mxCell>
                <mxCell id="13" value="append num to result list" style="whiteSpace=wrap;html=1;" vertex="1" parent="1">
                    <mxGeometry x="480" y="700" width="120" height="60" as="geometry"/>
                </mxCell>
                <mxCell id="16" value="end" style="ellipse;whiteSpace=wrap;html=1;" vertex="1" parent="1">
                    <mxGeometry x="340" y="732.5" width="80" height="80" as="geometry"/>
                </mxCell>
            </root>
        </mxGraphModel>
    </diagram>
</mxfile>